<svg width="96" height="144" viewBox="0 0 96 144" fill="none" xmlns="http://www.w3.org/2000/svg">
<path d="M53.5867 5.98779C57.5799 13.9144 61.7075 21.9947 62.9935 31.9787C64.3309 42.4609 62.1635 54.3677 59.4374 65.5552C53.5486 89.5485 42.8654 112.691 28.8495 132.859C26.6744 136.005 29.7898 139.171 31.9649 136.025C46.9116 114.644 58.1575 89.7472 64.2441 64.2217C66.9968 52.6651 68.8125 40.7956 67.5582 29.9687C66.3254 19.2464 61.9559 10.4896 57.7074 2.07107C56.2536 -0.75148 52.1893 3.18979 53.5867 5.98779Z" fill="#F3F4F6"/>
<path d="M29.1886 135.818C35.0823 125.059 38.4039 113.274 38.8563 101.762C38.975 98.1016 34.3724 99.4287 34.2537 103.089C33.8115 113.653 30.7174 124.3 25.3331 134.044C23.3918 137.577 27.3734 139.216 29.1886 135.818Z" fill="#F3F4F6"/>
<path d="M33.5991 134.737C39.2828 127.694 45.4556 121.529 52.0959 116.14C54.8727 113.923 52.6531 109.624 49.9327 111.866C42.949 117.582 36.5107 124.202 30.4836 131.572C28.1179 134.539 31.2682 137.625 33.5991 134.737Z" fill="#F3F4F6"/>
</svg>
