<svg width="20" height="17" viewBox="0 0 20 17" fill="none" xmlns="http://www.w3.org/2000/svg">
<path d="M2.7365 11.2322C2.21204 10.8254 1.45713 10.9209 1.05037 11.4453C0.643612 11.9698 0.73903 12.7247 1.2635 13.1314L2.7365 11.2322ZM18.9424 2.74567C19.3543 2.22517 19.2662 1.46938 18.7457 1.05755C18.2252 0.64573 17.4694 0.733829 17.0576 1.25433L18.9424 2.74567ZM1.2635 13.1314L5.2461 16.2202L6.71911 14.321L2.7365 11.2322L1.2635 13.1314ZM8.604 15.8123L18.9424 2.74567L17.0576 1.25433L6.71911 14.321L8.604 15.8123ZM5.2461 16.2202C6.28785 17.0282 7.786 16.8462 8.604 15.8123L6.71911 14.321L6.71911 14.321L5.2461 16.2202Z" fill="white"/>
</svg>
