<svg width="87" height="69" viewBox="0 0 87 69" fill="none" xmlns="http://www.w3.org/2000/svg">
<path d="M1 47.2008C1 33.2044 12.4863 15.901 33.6921 1.39988L35.7988 4.64096C24.3085 13.9664 20.841 20.7244 20.841 25.6025C20.841 27.5643 21.3928 28.8937 22.3932 29.8124C23.2614 30.6097 24.3927 31.0063 25.3301 31.335C25.3889 31.3556 25.4469 31.376 25.5041 31.3961C32.2769 33.9256 37.3431 40.715 37.3431 48.6569C37.3431 58.1211 29.8394 67.0711 19.2929 67.0711C10.9142 67.0711 1 60.7747 1 47.2008ZM57.874 24.1808C63.4358 16.3767 71.5467 8.53909 81.8665 1.40429L83.9777 4.65224C72.8381 13.9689 69.2552 20.7268 69.2552 25.6025C69.2552 27.5453 69.7653 28.873 70.7315 29.7981C71.5897 30.6198 72.7216 31.0179 73.6717 31.352C73.7155 31.3674 73.759 31.3827 73.802 31.3979C80.8262 33.9327 86 40.7287 86 48.6569C86 58.1081 78.3872 67.0711 67.7071 67.0711C59.3126 67.0711 49.1715 60.7602 49.1715 47.2008C49.1715 40.1341 52.1556 32.2044 57.874 24.1808Z" stroke="black" stroke-width="2"/>
</svg>
