<svg width="22" height="22" viewBox="0 0 22 22" fill="none" xmlns="http://www.w3.org/2000/svg">
<path fill-rule="evenodd" clip-rule="evenodd" d="M11.7163 21.5H1.65967C1.50733 21.5002 1.35647 21.4703 1.2157 21.412C1.07493 21.3538 0.947032 21.2684 0.839317 21.1607C0.731601 21.053 0.646187 20.9251 0.587962 20.7843C0.529738 20.6435 0.499847 20.4927 0.500001 20.3403V1.65967C0.500001 1.018 1.01917 0.5 1.65967 0.5H20.3415C20.9808 0.5 21.5 1.01917 21.5 1.65967V20.3403C21.5002 20.4926 21.4703 20.6433 21.4121 20.784C21.354 20.9247 21.2687 21.0526 21.1611 21.1603C21.0535 21.268 20.9257 21.3534 20.7851 21.4117C20.6445 21.47 20.4937 21.5 20.3415 21.5H14.99V13.3683H17.72L18.1283 10.1985H14.99V8.17433C14.99 7.25733 15.2443 6.632 16.5603 6.632H18.238V3.797C17.4258 3.71095 16.6094 3.66928 15.7927 3.67217C13.373 3.67217 11.7163 5.14917 11.7163 7.8605V10.1985H8.98167V13.3672H11.7175V21.5H11.7163Z" fill="white"/>
</svg>
