<svg width="28" height="28" viewBox="0 0 28 28" fill="none" xmlns="http://www.w3.org/2000/svg">
<path d="M14.0112 4.34736C15.9443 4.34736 17.5807 4.38711 18.9205 4.4666C20.2603 4.54609 21.3704 4.70508 22.2508 4.94355C23.1312 5.18203 23.8106 5.50993 24.2891 5.92726C24.7676 6.3446 25.1217 6.91098 25.3514 7.6264C25.581 8.34183 25.7246 9.19637 25.782 10.19C25.8394 11.1837 25.8586 12.386 25.8394 13.797L25.782 17.4039C25.7629 18.3976 25.6193 19.2521 25.3514 19.9675C25.0834 20.6829 24.7293 21.2394 24.2891 21.6368C23.8489 22.0343 23.1695 22.3721 22.2508 22.6504C21.3321 22.9286 20.222 23.0876 18.9205 23.1273C17.619 23.1671 15.9826 23.2068 14.0112 23.2466C12.0398 23.2863 10.4034 23.2466 9.10194 23.1273C7.80045 23.0081 6.69036 22.8491 5.77166 22.6504C4.85297 22.4516 4.17351 22.1138 3.73331 21.6368C3.2931 21.1599 2.93902 20.6035 2.67106 19.9675C2.40311 19.3316 2.26913 18.477 2.26913 17.4039C2.26913 16.3308 2.24042 15.1285 2.18301 13.797C2.12559 12.4655 2.1543 11.2632 2.26913 10.19C2.38397 9.11688 2.51795 8.26234 2.67106 7.6264C2.82418 6.99047 3.17826 6.42409 3.73331 5.92726C4.28835 5.43044 4.9678 5.10254 5.77166 4.94355C6.57552 4.78457 7.68561 4.62558 9.10194 4.4666C10.5183 4.30762 12.1547 4.26787 14.0112 4.34736ZM17.8008 14.2143C18.0305 14.0951 18.1453 13.9559 18.1453 13.797C18.1453 13.638 18.0305 13.4989 17.8008 13.3796L12.4896 10.816C12.26 10.6968 12.0686 10.6868 11.9154 10.7862C11.7623 10.8856 11.6762 11.0843 11.6571 11.3824V16.2115C11.6571 16.4897 11.7432 16.6785 11.9154 16.7779C12.0877 16.8773 12.2791 16.8773 12.4896 16.7779L17.8008 14.2143Z" fill="white"/>
</svg>
