<svg width="28" height="28" viewBox="0 0 28 28" fill="none" xmlns="http://www.w3.org/2000/svg">
<path d="M22.8712 4.66559L22.8778 4.66303L22.8843 4.6601C23.2709 4.48521 23.6042 4.54764 23.8055 4.74216C24.0101 4.93992 24.1491 5.34296 23.9872 5.99209L23.9871 5.99205L23.9852 6.00069L20.5741 22.0767L20.5739 22.0776C20.4617 22.6159 20.2586 22.874 20.0436 22.9708C19.8294 23.0672 19.5118 23.0451 19.0689 22.8044L13.8862 18.9762L13.7155 18.8502L13.5634 18.9981L11.0659 21.4267C11.0658 21.4268 11.0656 21.4269 11.0655 21.427C11.0588 21.4335 11.0522 21.4399 11.0457 21.4462C10.9034 21.5836 10.7995 21.6839 10.6766 21.7573C10.6158 21.7936 10.5486 21.824 10.4682 21.845L10.7964 16.9415L20.3609 8.3095C20.3612 8.30923 20.3615 8.30895 20.3618 8.30868C20.4813 8.20242 20.5936 8.06115 20.6 7.89165C20.6035 7.79783 20.5731 7.70903 20.5135 7.63805C20.4573 7.57102 20.3851 7.53142 20.3185 7.50856C20.1882 7.46384 20.0353 7.46721 19.889 7.49751C19.738 7.52881 19.5738 7.59285 19.4108 7.69202L19.4108 7.69199L19.4074 7.69416L7.60503 15.1407L2.572 13.5706L2.57088 13.5702C2.31497 13.4917 2.1461 13.3954 2.04865 13.3032C1.95548 13.2151 1.93771 13.143 1.94337 13.0867C1.94997 13.0211 1.99468 12.917 2.14215 12.7866C2.28777 12.6578 2.51533 12.5205 2.83997 12.39C2.8405 12.3898 2.84103 12.3896 2.84156 12.3893L22.8712 4.66559Z" fill="white" stroke="white" stroke-width="0.5"/>
</svg>
