<svg width="28" height="28" viewBox="0 0 28 28" fill="none" xmlns="http://www.w3.org/2000/svg">
<path d="M23.5202 7.97963C20.1602 2.79963 13.3002 1.25963 7.98018 4.47963C2.80018 7.69963 1.12018 14.6996 4.48018 19.8796L4.76018 20.2996L3.64018 24.4996L7.84018 23.3796L8.26018 23.6596C10.0802 24.6396 12.0402 25.1996 14.0002 25.1996C16.1002 25.1996 18.2002 24.6396 20.0202 23.5196C25.2002 20.1596 26.7402 13.2996 23.5202 7.97963ZM20.5802 18.7596C20.0202 19.5996 19.3202 20.1596 18.3402 20.2996C17.7802 20.2996 17.0802 20.5796 14.2802 19.4596C11.9002 18.3396 9.94018 16.5196 8.54018 14.4196C7.70018 13.4396 7.28018 12.1796 7.14018 10.9196C7.14018 9.79963 7.56018 8.81963 8.26018 8.11963C8.54018 7.83963 8.82018 7.69963 9.10018 7.69963H9.80018C10.0802 7.69963 10.3602 7.69963 10.5002 8.25963C10.7802 8.95963 11.4802 10.6396 11.4802 10.7796C11.6202 10.9196 11.6202 11.1996 11.4802 11.3396C11.6202 11.6196 11.4802 11.8996 11.3402 12.0396C11.2002 12.1796 11.0602 12.4596 10.9202 12.5996C10.6402 12.7396 10.5002 13.0196 10.6402 13.2996C11.2002 14.1396 11.9002 14.9796 12.6002 15.6796C13.4402 16.3796 14.2802 16.9396 15.2602 17.3596C15.5402 17.4996 15.8202 17.4996 15.9602 17.2196C16.1002 16.9396 16.8002 16.2396 17.0802 15.9596C17.3602 15.6796 17.5002 15.6796 17.7802 15.8196L20.0202 16.9396C20.3002 17.0796 20.5802 17.2196 20.7202 17.3596C20.8602 17.7796 20.8602 18.3396 20.5802 18.7596Z" fill="white"/>
</svg>
