<svg width="24" height="20" viewBox="0 0 24 20" fill="none" xmlns="http://www.w3.org/2000/svg">
<path d="M12.0112 0.347363C13.9443 0.347363 15.5807 0.387109 16.9205 0.466601C18.2603 0.546093 19.3704 0.705077 20.2508 0.943552C21.1312 1.18203 21.8106 1.50993 22.2891 1.92726C22.7676 2.3446 23.1217 2.91098 23.3514 3.6264C23.581 4.34183 23.7246 5.19637 23.782 6.19002C23.8394 7.18367 23.8586 8.38598 23.8394 9.79696L23.782 13.4039C23.7629 14.3976 23.6193 15.2521 23.3514 15.9675C23.0834 16.6829 22.7293 17.2394 22.2891 17.6368C21.8489 18.0343 21.1695 18.3721 20.2508 18.6504C19.3321 18.9286 18.222 19.0876 16.9205 19.1273C15.619 19.1671 13.9826 19.2068 12.0112 19.2466C10.0398 19.2863 8.40342 19.2466 7.10194 19.1273C5.80045 19.0081 4.69036 18.8491 3.77166 18.6504C2.85297 18.4516 2.17351 18.1138 1.73331 17.6368C1.2931 17.1599 0.939016 16.6035 0.671063 15.9675C0.40311 15.3316 0.269134 14.477 0.269134 13.4039C0.269134 12.3308 0.240425 11.1285 0.183006 9.79696C0.125588 8.46547 0.154297 7.26316 0.269134 6.19002C0.383971 5.11688 0.517947 4.26234 0.671063 3.6264C0.824179 2.99047 1.17826 2.42409 1.73331 1.92726C2.28835 1.43044 2.9678 1.10254 3.77166 0.943552C4.57552 0.784569 5.68561 0.625585 7.10194 0.466601C8.51826 0.307617 10.1547 0.267871 12.0112 0.347363ZM15.8008 10.2143C16.0305 10.0951 16.1453 9.95595 16.1453 9.79696C16.1453 9.63798 16.0305 9.49887 15.8008 9.37963L10.4896 6.81602C10.26 6.69678 10.0686 6.68684 9.91544 6.78621C9.76233 6.88557 9.6762 7.0843 9.65706 7.3824V12.2115C9.65706 12.4897 9.74319 12.6785 9.91544 12.7779C10.0877 12.8773 10.2791 12.8773 10.4896 12.7779L15.8008 10.2143Z" fill="white"/>
</svg>
