<svg width="375" height="202" viewBox="0 0 375 202" fill="none" xmlns="http://www.w3.org/2000/svg">
<path d="M181.822 20.3768C154.042 21.3124 126.482 27.6551 101.149 39.114C75.6144 50.5811 52.0955 66.9649 32.3698 87.3587C14.0016 106.447 -9.40804 135.325 5.45365 163.46C11.1381 174.267 21.7258 181.747 32.4039 186.515C44.5248 192.057 57.3314 194.655 70.1209 196.836C99.759 201.865 130.233 202.694 160.151 199.795C190.27 196.888 219.833 190.255 248.454 180.327C276.682 170.624 304.581 157.81 329.928 141.767C351.151 128.394 373.921 108.5 374.388 80.5667C374.596 65.9761 367.786 52.2994 358.287 41.8582C348.149 30.61 334.367 23.8864 320.46 19.0429C305.548 14.2407 289.889 10.9275 274.458 8.22986C257.802 5.16602 240.979 2.94232 223.989 1.55876C215.896 0.850409 207.812 0.35002 199.737 0.0575948C197.112 -0.0426424 194.808 2.76033 194.919 5.46386C195.038 8.37535 197.337 10.3638 200.163 10.4558C232.063 11.6421 263.889 15.9561 295.021 23.0068C319.846 28.6506 350.049 37.6144 361.22 64.2354C365.915 75.4994 365.605 87.5944 360.204 98.4409C354.802 109.287 345.886 117.987 336.499 125.04C325.746 133.19 313.725 139.935 301.881 146.047C289.248 152.608 276.397 158.762 263.101 163.892C209.741 185.046 151.888 194.927 94.8199 189.57C81.2595 188.253 67.6735 186.313 54.4389 183.108C44.0473 180.411 33.2106 176.691 24.4682 169.968C15.7258 163.246 10.1097 154.103 10.6469 142.623C11.0988 129.064 20.0714 116.821 28.1316 106.907C61.9397 66.1429 111.01 38.7079 162.954 32.1944C169.369 31.3054 175.8 30.8322 182.249 30.775C188.689 30.5099 188.262 20.1117 181.822 20.3768Z" fill="#FD512A"/>
</svg>
