<svg width="424" height="136" viewBox="0 0 424 136" fill="none" xmlns="http://www.w3.org/2000/svg">
<path d="M211.399 20.1629C180.476 18.7681 149.422 20.5953 120.48 25.6127C91.3153 30.6208 64.0449 38.6859 40.7067 49.3952C18.9678 59.4254 -9.0563 74.9074 5.48071 92.6347C11.0378 99.442 22.274 104.621 33.8006 108.198C46.8756 112.335 60.9184 114.774 74.9713 116.965C107.539 122.027 141.329 124.657 174.763 125.037C208.421 125.427 241.722 123.568 274.208 119.69C306.241 115.916 338.126 110.275 367.403 102.541C391.913 96.1003 418.597 85.9009 421.073 69.3691C422.326 60.7314 415.719 52.1432 405.899 45.2849C395.427 37.9033 380.589 32.9491 365.482 29.1009C349.254 25.2067 332.094 22.1431 315.143 19.4605C296.857 16.4748 278.327 13.9756 259.553 11.9628C250.614 10.9749 241.669 10.1108 232.72 9.37071C229.812 9.12707 227.056 10.6275 226.99 12.2385C226.919 13.9734 229.333 15.3139 232.466 15.5668C267.814 18.5088 302.863 23.3005 336.948 29.6663C364.127 34.7553 397.046 42.1903 407.59 58.7605C412.016 65.7696 410.825 72.9202 404.066 78.9731C397.307 85.026 386.794 89.5593 375.873 93.0827C363.359 97.1613 349.535 100.317 335.951 103.111C321.46 106.115 306.755 108.862 291.627 110.971C230.878 119.771 165.926 121.571 102.914 114.389C87.9444 112.657 72.9899 110.553 58.5142 107.723C47.1608 105.395 35.3846 102.428 26.145 97.8284C16.9054 93.2283 11.3076 87.4124 12.7082 80.6428C14.1598 72.6339 24.9833 66.0032 34.6303 60.6896C75.0366 38.8893 131.462 26.0639 189.614 25.8467C196.801 25.7696 203.978 25.9403 211.144 26.3589C218.316 26.6536 218.571 20.4576 211.399 20.1629Z" fill="#FD512A"/>
</svg>
