<svg width="175" height="28" viewBox="0 0 175 28" fill="none" xmlns="http://www.w3.org/2000/svg">
<g clip-path="url(#clip0_967_1067)">
<path fill-rule="evenodd" clip-rule="evenodd" d="M171.126 4.07537H170.439V3.08259H171.126C171.196 3.07263 171.268 3.07855 171.336 3.09991C171.404 3.12127 171.466 3.15751 171.517 3.20588C171.569 3.25426 171.608 3.3135 171.633 3.37914C171.658 3.44478 171.667 3.51509 171.66 3.58475C171.665 3.6535 171.654 3.72249 171.629 3.78666C171.603 3.85084 171.563 3.90857 171.512 3.95562C171.461 4.00267 171.4 4.03784 171.333 4.05857C171.266 4.07929 171.195 4.08503 171.126 4.07537ZM172.364 3.57321C172.383 3.41461 172.365 3.25397 172.314 3.10264C172.262 2.9513 172.177 2.81296 172.065 2.69737C171.953 2.58177 171.817 2.49175 171.666 2.43364C171.515 2.37554 171.352 2.35077 171.19 2.36109H169.729V6.07826H170.421V4.73915H170.82L171.695 6.07826H172.582L171.631 4.68143C171.865 4.60924 172.066 4.45915 172.2 4.25693C172.334 4.05471 172.392 3.81298 172.364 3.57321ZM48.5048 21.5184V18.4708H44.3605C40.3219 18.4708 40.2514 20.5891 40.2514 21.4664C40.2514 22.9498 41.3433 24.5314 44.3605 24.5314C48.3991 24.5198 48.4989 22.4015 48.5048 21.5184ZM36.1776 13.1778C36.1776 10.5054 37.3516 6.66123 44.3957 6.66123C51.0231 6.66123 53.1363 10.3034 53.1363 13.2355V27.5732H48.5048V26.0321H48.452C48.2876 26.6093 46.826 27.8214 44.3429 27.9657C41.5311 28.1331 39.23 27.7521 37.6451 26.2341C36.9944 25.6348 36.4769 24.9095 36.1253 24.1038C35.7738 23.2982 35.5957 22.4297 35.6023 21.553C35.6152 20.609 35.8378 19.6792 36.2545 18.8287C36.6713 17.9783 37.2721 17.2276 38.0149 16.6295C39.6879 15.4174 41.4841 15.0076 44.3664 15.0076H48.5107V12.8892C48.5107 11.3654 46.914 10.6959 45.1882 10.5342H45.1471C45.018 10.5342 44.6247 10.4996 44.3664 10.4996C40.2573 10.4996 40.2573 12.2312 40.2573 12.8892V13.1778H36.1776ZM121.682 8.94117C120.091 7.42891 117.837 6.63237 114.978 6.63237H114.52C111.732 6.72472 111.051 7.60207 110.892 8.15041H110.84V0.577538H106.249V27.5732H110.851V12.8835C110.851 12.2312 110.851 10.4996 114.996 10.4996C116.997 10.4996 119.105 11.123 119.105 12.8835V27.5732H123.707V13.6223C123.698 12.7485 123.514 11.885 123.164 11.0817C122.814 10.2783 122.307 9.55083 121.67 8.94117H121.682ZM66.0975 6.63237C68.9563 6.63237 71.2104 7.40005 72.7954 8.94117C73.4344 9.54968 73.9445 10.2767 74.2961 11.0801C74.6478 11.8836 74.834 12.7476 74.844 13.6223V27.579H70.2419V12.8892C70.2419 11.1576 68.1051 10.5054 66.0975 10.5054C61.9885 10.5054 61.9885 12.237 61.9885 12.8892V27.579H57.3452V6.92674H61.9474V8.20236H62.0002C62.1587 7.65402 62.8338 6.77667 65.6221 6.69009H66.0623L66.0975 6.63237ZM29.9846 6.63237H29.5443C26.756 6.71895 26.0809 7.5963 25.9166 8.14464H25.8285V6.92674H21.2322V27.579H25.8285V12.8892C25.8285 12.237 25.8285 10.5054 29.9728 10.5054H33.2249V6.66123L29.9846 6.63237ZM87.4648 24.1158C91.5739 24.1158 91.5739 22.1764 91.5739 21.4491V13.1836C91.5739 12.4506 91.5739 10.5169 87.4648 10.5169C85.4572 10.5169 83.3205 11.2153 83.3205 13.1836V21.4491C83.297 23.4174 85.4337 24.1158 87.4648 24.1158ZM91.5739 8.18504V7.28461V0.577538H96.176V27.579H91.5739V26.0379H91.521C91.3567 26.6151 90.664 27.8734 87.7642 27.9657H87.4648C84.606 27.9657 82.3519 27.198 80.767 25.6569C80.1268 25.0508 79.6163 24.3249 79.2655 23.522C78.9147 22.7192 78.7307 21.8554 78.7242 20.9816V13.6223C78.7242 10.2687 81.4597 6.66123 87.4648 6.66123H87.9285C90.7168 6.75358 91.3919 7.63093 91.5504 8.17927L91.5739 8.18504ZM140.39 21.7319C140.39 22.3842 140.39 24.1158 136.281 24.1158C134.273 24.1158 132.136 23.4924 132.136 21.7319V6.92674H127.534V20.8661C127.542 21.7406 127.726 22.6049 128.077 23.4086C128.428 24.2122 128.938 24.9392 129.577 25.5472C131.162 27.0595 133.416 27.856 136.281 27.856C137.039 27.8586 137.797 27.8026 138.547 27.6887C138.963 27.591 139.349 27.3918 139.667 27.1094C139.985 26.827 140.225 26.4704 140.366 26.0725H140.419V27.6078H144.992V6.92674H140.39V21.7319ZM157.707 24.1158C159.708 24.1158 161.845 23.4116 161.845 21.4491V13.1836C161.845 11.2153 159.708 10.5169 157.707 10.5169C153.562 10.5169 153.562 12.4563 153.562 13.1836V21.4491C153.568 22.1822 153.568 24.1158 157.713 24.1158H157.707ZM157.707 6.66123C160.571 6.66123 162.82 7.42891 164.41 8.97003C165.05 9.57764 165.56 10.3046 165.911 11.1083C166.262 11.9121 166.446 12.7765 166.453 13.6511V21.0047C166.453 24.3582 163.718 27.9657 157.713 27.9657H157.378C154.478 27.8734 153.785 26.5977 153.621 26.0436H153.574V27.579H148.972V0.577538H153.574V8.18504H153.621C153.78 7.6367 154.46 6.75936 157.249 6.667H157.707V6.66123ZM8.74061 24.1273C10.7482 24.1273 12.8849 23.4231 12.8849 21.4549V13.1778C12.8849 11.2038 10.7482 10.4996 8.74061 10.4996C4.63153 10.4996 4.63152 12.4448 4.63152 13.1778V21.4549C4.60217 22.1879 4.60217 24.1273 8.74061 24.1273ZM8.74061 6.66123C11.6052 6.66123 13.8535 7.42891 15.4443 8.97003C16.0841 9.57764 16.5943 10.3046 16.945 11.1083C17.2958 11.9121 17.4801 12.7765 17.4871 13.6511V21.0047C17.4871 24.3582 14.7457 27.9657 8.74061 27.9657H8.41188C5.51204 27.8734 4.8135 26.5977 4.655 26.0436H4.60217V27.579H0V0.577538H4.60217V8.18504H4.655C4.81937 7.6367 5.49443 6.75936 8.28274 6.667H8.74061V6.66123ZM167.492 4.2139C167.465 4.67857 167.534 5.14386 167.696 5.58123C167.858 6.01861 168.109 6.41884 168.434 6.75739C168.759 7.09594 169.15 7.36566 169.585 7.55001C170.02 7.73436 170.488 7.82946 170.961 7.82946C171.435 7.82946 171.903 7.73436 172.338 7.55001C172.772 7.36566 173.164 7.09594 173.489 6.75739C173.814 6.41884 174.065 6.01861 174.227 5.58123C174.389 5.14386 174.458 4.67857 174.431 4.2139C174.458 3.74924 174.389 3.28395 174.227 2.84657C174.065 2.4092 173.814 2.00896 173.489 1.67041C173.164 1.33186 172.772 1.06214 172.338 0.87779C171.903 0.693439 171.435 0.598347 170.961 0.598347C170.488 0.598347 170.02 0.693439 169.585 0.87779C169.15 1.06214 168.759 1.33186 168.434 1.67041C168.109 2.00896 167.858 2.4092 167.696 2.84657C167.534 3.28395 167.465 3.74924 167.492 4.2139ZM166.905 4.2139C166.869 3.66996 166.946 3.12444 167.133 2.61111C167.319 2.09779 167.611 1.62759 167.99 1.22963C168.369 0.83167 168.827 0.514426 169.335 0.297541C169.844 0.080657 170.392 -0.03125 170.947 -0.03125C171.501 -0.03125 172.05 0.080657 172.558 0.297541C173.067 0.514426 173.525 0.83167 173.904 1.22963C174.282 1.62759 174.574 2.09779 174.761 2.61111C174.947 3.12444 175.025 3.66996 174.988 4.2139C175.025 4.75784 174.947 5.30336 174.761 5.81669C174.574 6.33001 174.282 6.80022 173.904 7.19817C173.525 7.59613 173.067 7.91338 172.558 8.13026C172.05 8.34715 171.501 8.45905 170.947 8.45905C170.392 8.45905 169.844 8.34715 169.335 8.13026C168.827 7.91338 168.369 7.59613 167.99 7.19817C167.611 6.80022 167.319 6.33001 167.133 5.81669C166.946 5.30336 166.869 4.75784 166.905 4.2139Z" fill="white"/>
</g>
<defs>
<clipPath id="clip0_967_1067">
<rect width="175" height="28" fill="white"/>
</clipPath>
</defs>
</svg>
