<svg width="422" height="515" viewBox="0 0 422 515" fill="none" xmlns="http://www.w3.org/2000/svg">
<path d="M71.0967 439.241L69.7458 443.143H73.875H131.758H133.879L134.548 441.13L163.854 352.978H288.816L318.122 441.13L318.791 443.143H320.912H378.795H382.924L381.573 439.241L255.988 76.51L255.303 74.5319H253.209H199.461H197.367L196.682 76.51L71.0967 439.241ZM226.335 159.033L269.838 293.207H182.832L226.335 159.033Z" fill="#FD512A" stroke="black" stroke-width="5.88013"/>
<path d="M249.373 85.7892C255.472 86.9666 261.359 82.9657 262.531 76.8673C263.703 70.7689 259.721 64.8629 253.621 63.6855C247.522 62.5081 241.635 66.509 240.463 72.6074C239.291 78.7058 243.273 84.6118 249.373 85.7892Z" fill="white" stroke="black" stroke-width="5.88013"/>
<path d="M197.627 85.7892C203.727 86.9666 209.614 82.9657 210.786 76.8673C211.958 70.7689 207.976 64.8629 201.876 63.6855C195.777 62.5081 189.89 66.509 188.718 72.6074C187.545 78.7058 191.528 84.6118 197.627 85.7892Z" fill="white" stroke="black" stroke-width="5.88013"/>
<path d="M181.033 305.09C187.133 306.268 193.019 302.267 194.192 296.169C195.364 290.07 191.381 284.164 185.282 282.987C179.183 281.809 173.296 285.81 172.123 291.909C170.951 298.007 174.934 303.913 181.033 305.09Z" fill="white" stroke="black" stroke-width="5.88013"/>
<path d="M270.891 304.52C276.99 305.697 282.877 301.696 284.05 295.598C285.222 289.499 281.239 283.593 275.14 282.416C269.041 281.239 263.154 285.239 261.981 291.338C260.809 297.436 264.792 303.342 270.891 304.52Z" fill="white" stroke="black" stroke-width="5.88013"/>
<path d="M129.175 451.638C135.275 452.815 141.162 448.814 142.334 442.716C143.506 436.618 139.523 430.712 133.424 429.534C127.325 428.357 121.438 432.358 120.266 438.456C119.093 444.554 123.076 450.46 129.175 451.638Z" fill="white" stroke="black" stroke-width="5.88013"/>
<path d="M319.057 451.155C325.156 452.333 331.043 448.332 332.215 442.234C333.387 436.135 329.405 430.229 323.305 429.052C317.206 427.874 311.319 431.875 310.147 437.974C308.975 444.072 312.957 449.978 319.057 451.155Z" fill="white" stroke="black" stroke-width="5.88013"/>
<path d="M376.367 451.155C382.467 452.333 388.353 448.332 389.526 442.234C390.698 436.135 386.715 430.229 380.616 429.052C374.517 427.874 368.63 431.875 367.457 437.974C366.285 444.072 370.268 449.978 376.367 451.155Z" fill="white" stroke="black" stroke-width="5.88013"/>
<path d="M288.573 363.785C294.672 364.963 300.559 360.962 301.731 354.863C302.903 348.765 298.921 342.859 292.821 341.682C286.722 340.504 280.835 344.505 279.663 350.603C278.491 356.702 282.473 362.608 288.573 363.785Z" fill="white" stroke="black" stroke-width="5.88013"/>
<path d="M162.364 365.372C168.464 366.549 174.351 362.549 175.523 356.45C176.695 350.352 172.712 344.446 166.613 343.268C160.514 342.091 154.627 346.092 153.454 352.19C152.282 358.289 156.265 364.195 162.364 365.372Z" fill="white" stroke="black" stroke-width="5.88013"/>
<path d="M132.288 270.792C138.387 271.97 144.274 267.969 145.447 261.87C146.619 255.772 142.636 249.866 136.537 248.688C130.437 247.511 124.551 251.512 123.378 257.61C122.206 263.709 126.189 269.615 132.288 270.792Z" fill="white" stroke="black" stroke-width="5.88013"/>
<path d="M315.862 270.792C321.962 271.97 327.849 267.969 329.021 261.87C330.193 255.772 326.21 249.866 320.111 248.688C314.012 247.511 308.125 251.512 306.953 257.61C305.78 263.709 309.763 269.615 315.862 270.792Z" fill="white" stroke="black" stroke-width="5.88013"/>
<path d="M223.945 166.438C230.044 167.616 235.931 163.615 237.103 157.516C238.276 151.418 234.293 145.512 228.194 144.334C222.094 143.157 216.207 147.158 215.035 153.256C213.863 159.355 217.845 165.261 223.945 166.438Z" fill="white" stroke="black" stroke-width="5.88013"/>
<rect x="164.006" y="470.871" width="154.125" height="44.1291" rx="2" fill="#0ECB6E"/>
<g clip-path="url(#clip0_198_2716)">
<path fill-rule="evenodd" clip-rule="evenodd" d="M131.146 440.393C131.454 440.084 131.918 439.992 132.32 440.16L169.568 455.712C169.981 455.884 170.245 456.294 170.229 456.742C170.214 457.19 169.924 457.582 169.501 457.726L153.782 463.076L148.443 478.829C148.299 479.253 147.908 479.544 147.461 479.559C147.014 479.574 146.605 479.31 146.433 478.896L130.914 441.569C130.747 441.166 130.838 440.702 131.146 440.393Z" fill="#0ECB6E"/>
</g>
<path d="M185.104 504.2H186.4C189.304 504.2 190.168 503.312 191.368 499.976L195.904 487.088H192.976L190.048 496.352L187.12 487.088H184L188.68 499.928L188.536 500.24C187.96 501.92 187.432 502.016 186.184 502.016H185.104V504.2ZM209.136 493.568C209.136 488.912 205.92 486.8 202.776 486.8C199.632 486.8 196.416 488.912 196.416 493.568C196.416 498.224 199.632 500.312 202.776 500.312C205.92 500.312 209.136 498.224 209.136 493.568ZM202.776 497.984C200.976 497.984 199.368 496.544 199.368 493.568C199.368 490.592 200.976 489.128 202.776 489.128C204.576 489.128 206.184 490.592 206.184 493.568C206.184 496.544 204.576 497.984 202.776 497.984ZM219.451 498.224V500H222.307V487.088H219.451V493.976C219.451 496.304 218.683 497.984 216.547 497.984C214.411 497.984 214.171 496.28 214.171 494.528V487.088H211.315V495.224C211.315 498.296 212.563 500.312 215.635 500.312C217.387 500.312 218.707 499.568 219.451 498.224ZM232.578 489.992V487.112C232.362 487.088 232.05 487.064 231.834 487.064C230.274 487.088 229.026 487.952 228.33 489.392V487.088H225.522V500H228.378V493.232C228.378 490.64 229.41 489.92 231.21 489.92C231.642 489.92 232.098 489.944 232.578 489.992ZM242.769 482.6H239.913V500H242.769V498.296C243.537 499.568 244.881 500.312 246.609 500.312C249.657 500.312 252.225 497.696 252.225 493.544C252.225 489.416 249.657 486.8 246.609 486.8C244.881 486.8 243.537 487.544 242.769 488.816V482.6ZM245.985 497.984C244.113 497.984 242.649 496.52 242.649 493.544C242.649 490.568 244.113 489.128 245.985 489.128C247.881 489.128 249.249 490.832 249.249 493.544C249.249 496.28 247.881 497.984 245.985 497.984ZM261.617 489.992V487.112C261.401 487.088 261.089 487.064 260.873 487.064C259.313 487.088 258.065 487.952 257.369 489.392V487.088H254.561V500H257.417V493.232C257.417 490.64 258.449 489.92 260.249 489.92C260.681 489.92 261.137 489.944 261.617 489.992ZM262.184 496.448C262.184 498.8 264.152 500.312 266.96 500.312C268.856 500.312 270.392 499.64 271.208 498.248C271.256 499.136 271.352 499.448 271.448 500H274.064C273.824 498.92 273.68 497.216 273.68 495.584C273.68 494.408 273.728 492.896 273.728 492.248C273.8 488.12 271.376 486.704 268.28 486.704C265.16 486.704 262.976 488.504 262.784 491.144H265.592C265.664 489.584 266.744 488.816 268.184 488.816C269.6 488.816 270.872 489.488 270.872 491.696V491.936C266.144 492.416 262.184 493.232 262.184 496.448ZM270.944 493.928V494.912C270.944 497.096 269.696 498.176 267.584 498.176C266.144 498.176 265.208 497.504 265.208 496.376C265.208 494.888 266.864 494.312 270.944 493.928ZM279.472 488.888V487.088H276.616V500H279.472V493.136C279.472 490.808 280.288 489.128 282.472 489.128C284.656 489.128 284.92 490.832 284.92 492.584V500H287.776V491.888C287.776 488.816 286.504 486.8 283.384 486.8C281.584 486.8 280.216 487.544 279.472 488.888ZM299.317 482.6V488.816C298.549 487.544 297.205 486.8 295.477 486.8C292.429 486.8 289.861 489.416 289.861 493.544C289.861 497.696 292.429 500.312 295.477 500.312C297.205 500.312 298.549 499.568 299.317 498.296V500H302.173V482.6H299.317ZM296.101 489.128C297.973 489.128 299.437 490.568 299.437 493.544C299.437 496.52 297.973 497.984 296.101 497.984C294.205 497.984 292.837 496.28 292.837 493.544C292.837 490.832 294.205 489.128 296.101 489.128Z" fill="white"/>
<g filter="url(#filter0_d_198_2716)">
<path d="M40.5504 328.831L68.4115 363.92L24.1569 370.555L40.5504 328.831Z" fill="#0068FF"/>
</g>
<g filter="url(#filter1_d_198_2716)">
<path d="M417.796 345.645L388.382 354.237L395.663 324.413L417.796 345.645Z" fill="#FD512A"/>
</g>
<g filter="url(#filter2_d_198_2716)">
<path fill-rule="evenodd" clip-rule="evenodd" d="M158.136 63.3392L146.308 83.9217L138.606 79.4769L150.434 58.8946L128.611 46.3009L133.046 38.5824L133.046 38.5825L144.874 18.0002L152.576 22.4449L140.749 43.0273L162.571 55.6207L158.136 63.339L158.136 63.3392Z" fill="#FFC534"/>
</g>
<g filter="url(#filter3_d_198_2716)">
<ellipse cx="357.773" cy="152.5" rx="13.4714" ry="13.5" fill="#C37DD2"/>
</g>
<g filter="url(#filter4_d_198_2716)">
<ellipse cx="247.008" cy="407.5" rx="5.48836" ry="5.5" fill="#BC70CD"/>
</g>
<g filter="url(#filter5_d_198_2716)">
<path d="M142.324 181.814L159.456 217.835L119.761 214.693L142.324 181.814Z" fill="#0ECB6E"/>
</g>
<defs>
<filter id="filter0_d_198_2716" x="0.073421" y="314.381" width="68.3382" height="56.1744" filterUnits="userSpaceOnUse" color-interpolation-filters="sRGB">
<feFlood flood-opacity="0" result="BackgroundImageFix"/>
<feColorMatrix in="SourceAlpha" type="matrix" values="0 0 0 0 0 0 0 0 0 0 0 0 0 0 0 0 0 0 127 0" result="hardAlpha"/>
<feOffset dx="-21.675" dy="-12.0417"/>
<feGaussianBlur stdDeviation="1.20417"/>
<feColorMatrix type="matrix" values="0 0 0 0 0 0 0 0 0 0 0 0 0 0 0 0 0 0 0.25 0"/>
<feBlend mode="normal" in2="BackgroundImageFix" result="effect1_dropShadow_198_2716"/>
<feBlend mode="normal" in="SourceGraphic" in2="effect1_dropShadow_198_2716" result="shape"/>
</filter>
<filter id="filter1_d_198_2716" x="371.892" y="314.519" width="45.904" height="39.718" filterUnits="userSpaceOnUse" color-interpolation-filters="sRGB">
<feFlood flood-opacity="0" result="BackgroundImageFix"/>
<feColorMatrix in="SourceAlpha" type="matrix" values="0 0 0 0 0 0 0 0 0 0 0 0 0 0 0 0 0 0 127 0" result="hardAlpha"/>
<feOffset dx="-14.841" dy="-8.24499"/>
<feGaussianBlur stdDeviation="0.824498"/>
<feColorMatrix type="matrix" values="0 0 0 0 0 0 0 0 0 0 0 0 0 0 0 0 0 0 0.25 0"/>
<feBlend mode="normal" in2="BackgroundImageFix" result="effect1_dropShadow_198_2716"/>
<feBlend mode="normal" in="SourceGraphic" in2="effect1_dropShadow_198_2716" result="shape"/>
</filter>
<filter id="filter2_d_198_2716" x="98.9217" y="0.186774" width="63.6491" height="83.7349" filterUnits="userSpaceOnUse" color-interpolation-filters="sRGB">
<feFlood flood-opacity="0" result="BackgroundImageFix"/>
<feColorMatrix in="SourceAlpha" type="matrix" values="0 0 0 0 0 0 0 0 0 0 0 0 0 0 0 0 0 0 127 0" result="hardAlpha"/>
<feOffset dx="-26.7202" dy="-14.8446"/>
<feGaussianBlur stdDeviation="1.48446"/>
<feColorMatrix type="matrix" values="0 0 0 0 0 0 0 0 0 0 0 0 0 0 0 0 0 0 0.25 0"/>
<feBlend mode="normal" in2="BackgroundImageFix" result="effect1_dropShadow_198_2716"/>
<feBlend mode="normal" in="SourceGraphic" in2="effect1_dropShadow_198_2716" result="shape"/>
</filter>
<filter id="filter3_d_198_2716" x="317.96" y="123.195" width="53.2843" height="42.8049" filterUnits="userSpaceOnUse" color-interpolation-filters="sRGB">
<feFlood flood-opacity="0" result="BackgroundImageFix"/>
<feColorMatrix in="SourceAlpha" type="matrix" values="0 0 0 0 0 0 0 0 0 0 0 0 0 0 0 0 0 0 127 0" result="hardAlpha"/>
<feOffset dx="-23.7073" dy="-13.1707"/>
<feGaussianBlur stdDeviation="1.31707"/>
<feColorMatrix type="matrix" values="0 0 0 0 0 0 0 0 0 0 0 0 0 0 0 0 0 0 0.25 0"/>
<feBlend mode="normal" in2="BackgroundImageFix" result="effect1_dropShadow_198_2716"/>
<feBlend mode="normal" in="SourceGraphic" in2="effect1_dropShadow_198_2716" result="shape"/>
</filter>
<filter id="filter4_d_198_2716" x="230.788" y="395.561" width="21.7083" height="17.439" filterUnits="userSpaceOnUse" color-interpolation-filters="sRGB">
<feFlood flood-opacity="0" result="BackgroundImageFix"/>
<feColorMatrix in="SourceAlpha" type="matrix" values="0 0 0 0 0 0 0 0 0 0 0 0 0 0 0 0 0 0 127 0" result="hardAlpha"/>
<feOffset dx="-9.65854" dy="-5.36585"/>
<feGaussianBlur stdDeviation="0.536585"/>
<feColorMatrix type="matrix" values="0 0 0 0 0 0 0 0 0 0 0 0 0 0 0 0 0 0 0.25 0"/>
<feBlend mode="normal" in2="BackgroundImageFix" result="effect1_dropShadow_198_2716"/>
<feBlend mode="normal" in="SourceGraphic" in2="effect1_dropShadow_198_2716" result="shape"/>
</filter>
<filter id="filter5_d_198_2716" x="98.3303" y="168.956" width="61.1262" height="48.8798" filterUnits="userSpaceOnUse" color-interpolation-filters="sRGB">
<feFlood flood-opacity="0" result="BackgroundImageFix"/>
<feColorMatrix in="SourceAlpha" type="matrix" values="0 0 0 0 0 0 0 0 0 0 0 0 0 0 0 0 0 0 127 0" result="hardAlpha"/>
<feOffset dx="-19.2878" dy="-10.7155"/>
<feGaussianBlur stdDeviation="1.07155"/>
<feColorMatrix type="matrix" values="0 0 0 0 0 0 0 0 0 0 0 0 0 0 0 0 0 0 0.25 0"/>
<feBlend mode="normal" in2="BackgroundImageFix" result="effect1_dropShadow_198_2716"/>
<feBlend mode="normal" in="SourceGraphic" in2="effect1_dropShadow_198_2716" result="shape"/>
</filter>
<clipPath id="clip0_198_2716">
<rect width="41.9281" height="42.017" fill="white" transform="translate(129.757 439)"/>
</clipPath>
</defs>
</svg>
