<svg width="421" height="378" viewBox="0 0 421 378" fill="none" xmlns="http://www.w3.org/2000/svg">
<path d="M75.2695 98.9826L236.479 7.67969L398.542 98.9826V279.028L236.479 370.331L75.2695 279.028V98.9826Z" fill="#FD512A" stroke="black" stroke-width="1.70999"/>
<path d="M404.342 94.7051C402.453 91.5974 399.813 89.0151 396.665 87.1961L246.544 2.54894C243.453 0.876031 239.994 0 236.479 0C232.964 0 229.505 0.876031 226.414 2.54894L76.2928 87.0254C73.1447 88.8444 70.5048 91.4267 68.6162 94.5344C66.8599 97.6636 65.9211 101.185 65.8867 104.774V273.044C65.9063 276.68 66.8772 280.247 68.7029 283.391C70.5285 286.535 73.1453 289.146 76.2928 290.964L226.414 375.44C229.328 377.096 232.617 377.977 235.967 378H236.991C240.321 377.838 243.579 376.965 246.544 375.44L396.665 290.964C399.848 289.186 402.494 286.585 404.325 283.432C406.156 280.279 407.105 276.691 407.071 273.044V104.945C407.037 101.356 406.098 97.8343 404.342 94.7051ZM233.238 14.4951C234.233 13.9521 235.345 13.6592 236.479 13.6418C237.666 13.6644 238.833 13.9561 239.891 14.4951L386.43 96.9237L320.41 134.469L168.583 50.8456L233.238 14.4951ZM238.014 181.23L86.699 96.9237L154.595 58.6959L306.422 142.49L238.014 181.23ZM83.1165 279.188C82.0262 278.621 81.1142 277.762 80.4819 276.708C79.8495 275.654 79.5215 274.445 79.5341 273.215V108.529L231.191 193.005L229.826 361.787L83.1165 279.188ZM390.012 279.188L243.473 361.617L244.838 193.005L313.245 154.265V230.891C313.245 232.702 313.964 234.438 315.244 235.718C316.524 236.999 318.259 237.718 320.069 237.718C321.879 237.718 323.615 236.999 324.894 235.718C326.174 234.438 326.893 232.702 326.893 230.891V146.415L393.424 108.699V273.215C393.435 274.424 393.124 275.614 392.525 276.663C391.926 277.712 391.058 278.584 390.012 279.188Z" fill="black"/>
<path d="M160.748 169.398L167.032 207.667L194.212 192.171L181.183 223.072L215.497 228.997L187.291 242.719L217.845 268.185L183.417 260.372L200.509 297.293L170.791 270.424L168.995 307.079L153.421 269.686L133.308 294.436L136.823 258.391L104.777 263.379L126.266 240.125L92.4623 223.767L125.101 220.688L100.273 188.178L133.7 206.25L125.729 167.91L149.331 201.397L160.748 169.398Z" fill="#7B61FF"/>
<g filter="url(#filter0_d_963_1115)">
<path d="M307.502 258.317L335.316 293.336L291.136 299.958L307.502 258.317Z" fill="#0068FF"/>
</g>
<g filter="url(#filter1_d_963_1115)">
<path fill-rule="evenodd" clip-rule="evenodd" d="M59.2839 327.687L47.4762 348.228L39.787 343.793L51.5948 323.251L59.2839 327.687ZM34.2365 302.979L29.8087 310.682L59.2838 327.687L63.7117 319.983L41.9256 307.415L53.7332 286.874L46.044 282.438L34.2363 302.979L34.2365 302.979Z" fill="#FFC534"/>
</g>
<g filter="url(#filter2_d_963_1115)">
<ellipse cx="407.55" cy="63.3736" rx="13.4488" ry="13.4732" fill="#C37DD2"/>
</g>
<g filter="url(#filter3_d_963_1115)">
<path d="M60.4323 100.614L77.5356 136.564L37.907 133.428L60.4323 100.614Z" fill="#0ECB6E"/>
</g>
<rect x="198.84" y="309.256" width="153.866" height="44.0414" rx="2" fill="#0ECB6E"/>
<g clip-path="url(#clip0_963_1115)">
<path fill-rule="evenodd" clip-rule="evenodd" d="M166.035 278.838C166.343 278.53 166.805 278.439 167.207 278.606L204.393 294.126C204.805 294.299 205.067 294.708 205.052 295.155C205.037 295.602 204.748 295.993 204.325 296.137L188.632 301.477L183.303 317.198C183.159 317.621 182.769 317.911 182.322 317.926C181.876 317.942 181.467 317.678 181.296 317.265L165.803 280.012C165.636 279.61 165.728 279.146 166.035 278.838Z" fill="#0ECB6E"/>
</g>
<path d="M217.104 343.572H218.4C221.304 343.572 222.168 342.684 223.368 339.348L227.904 326.46H224.976L222.048 335.724L219.12 326.46H216L220.68 339.3L220.536 339.612C219.96 341.292 219.432 341.388 218.184 341.388H217.104V343.572ZM241.136 332.94C241.136 328.284 237.92 326.172 234.776 326.172C231.632 326.172 228.416 328.284 228.416 332.94C228.416 337.596 231.632 339.684 234.776 339.684C237.92 339.684 241.136 337.596 241.136 332.94ZM234.776 337.356C232.976 337.356 231.368 335.916 231.368 332.94C231.368 329.964 232.976 328.5 234.776 328.5C236.576 328.5 238.184 329.964 238.184 332.94C238.184 335.916 236.576 337.356 234.776 337.356ZM251.451 337.596V339.372H254.307V326.46H251.451V333.348C251.451 335.676 250.683 337.356 248.547 337.356C246.411 337.356 246.171 335.652 246.171 333.9V326.46H243.315V334.596C243.315 337.668 244.563 339.684 247.635 339.684C249.387 339.684 250.707 338.94 251.451 337.596ZM264.578 329.364V326.484C264.362 326.46 264.05 326.436 263.834 326.436C262.274 326.46 261.026 327.324 260.33 328.764V326.46H257.522V339.372H260.378V332.604C260.378 330.012 261.41 329.292 263.21 329.292C263.642 329.292 264.098 329.316 264.578 329.364ZM274.769 321.972H271.913V339.372H274.769V337.668C275.537 338.94 276.881 339.684 278.609 339.684C281.657 339.684 284.225 337.068 284.225 332.916C284.225 328.788 281.657 326.172 278.609 326.172C276.881 326.172 275.537 326.916 274.769 328.188V321.972ZM277.985 337.356C276.113 337.356 274.649 335.892 274.649 332.916C274.649 329.94 276.113 328.5 277.985 328.5C279.881 328.5 281.249 330.204 281.249 332.916C281.249 335.652 279.881 337.356 277.985 337.356ZM293.617 329.364V326.484C293.401 326.46 293.089 326.436 292.873 326.436C291.313 326.46 290.065 327.324 289.369 328.764V326.46H286.561V339.372H289.417V332.604C289.417 330.012 290.449 329.292 292.249 329.292C292.681 329.292 293.137 329.316 293.617 329.364ZM294.184 335.82C294.184 338.172 296.152 339.684 298.96 339.684C300.856 339.684 302.392 339.012 303.208 337.62C303.256 338.508 303.352 338.82 303.448 339.372H306.064C305.824 338.292 305.68 336.588 305.68 334.956C305.68 333.78 305.728 332.268 305.728 331.62C305.8 327.492 303.376 326.076 300.28 326.076C297.16 326.076 294.976 327.876 294.784 330.516H297.592C297.664 328.956 298.744 328.188 300.184 328.188C301.6 328.188 302.872 328.86 302.872 331.068V331.308C298.144 331.788 294.184 332.604 294.184 335.82ZM302.944 333.3V334.284C302.944 336.468 301.696 337.548 299.584 337.548C298.144 337.548 297.208 336.876 297.208 335.748C297.208 334.26 298.864 333.684 302.944 333.3ZM311.472 328.26V326.46H308.616V339.372H311.472V332.508C311.472 330.18 312.288 328.5 314.472 328.5C316.656 328.5 316.92 330.204 316.92 331.956V339.372H319.776V331.26C319.776 328.188 318.504 326.172 315.384 326.172C313.584 326.172 312.216 326.916 311.472 328.26ZM331.317 321.972V328.188C330.549 326.916 329.205 326.172 327.477 326.172C324.429 326.172 321.861 328.788 321.861 332.916C321.861 337.068 324.429 339.684 327.477 339.684C329.205 339.684 330.549 338.94 331.317 337.668V339.372H334.173V321.972H331.317ZM328.101 328.5C329.973 328.5 331.437 329.94 331.437 332.916C331.437 335.892 329.973 337.356 328.101 337.356C326.205 337.356 324.837 335.652 324.837 332.916C324.837 330.204 326.205 328.5 328.101 328.5Z" fill="white"/>
<path fill-rule="evenodd" clip-rule="evenodd" d="M259.109 146.896L258.644 146.636L259.19 146.091L259.655 146.351C259.708 146.372 259.754 146.402 259.788 146.44C259.822 146.477 259.844 146.52 259.853 146.566C259.861 146.613 259.855 146.66 259.836 146.706C259.816 146.751 259.784 146.793 259.741 146.829C259.706 146.868 259.661 146.902 259.609 146.928C259.556 146.953 259.497 146.97 259.436 146.976C259.376 146.983 259.315 146.979 259.258 146.965C259.202 146.951 259.151 146.928 259.109 146.896ZM260.224 147.089C260.324 147.009 260.401 146.914 260.449 146.811C260.497 146.709 260.516 146.601 260.504 146.495C260.492 146.389 260.449 146.288 260.378 146.199C260.308 146.109 260.212 146.034 260.096 145.979L259.106 145.425L257.06 147.467L257.529 147.729L258.266 146.994L258.537 147.145L258.392 148.212L258.993 148.547L259.117 147.42C259.316 147.469 259.535 147.463 259.737 147.402C259.939 147.342 260.111 147.231 260.224 147.089ZM166.432 110.046L168.109 108.372L165.302 106.803C162.565 105.273 161.352 106.41 160.869 106.892C160.052 107.707 159.921 108.989 161.966 110.132C164.708 111.655 165.942 110.529 166.432 110.046ZM162.671 100.796C164.142 99.3282 167.054 97.661 171.826 100.328C176.316 102.838 175.743 105.639 174.129 107.25L166.237 115.126L163.099 113.372L163.947 112.526L163.912 112.506C163.482 112.76 161.825 112.873 160.063 112.012C158.066 111.039 156.717 109.959 156.479 108.524C156.368 107.949 156.416 107.354 156.622 106.779C156.827 106.203 157.184 105.658 157.671 105.179C158.2 104.666 158.862 104.239 159.613 103.93C160.363 103.62 161.183 103.436 162.016 103.388C163.817 103.356 165.259 103.811 167.212 104.902L170.02 106.472L171.186 105.308C172.024 104.471 171.311 103.498 170.231 102.756L170.203 102.741C170.116 102.692 169.868 102.524 169.693 102.426C166.909 100.87 165.956 101.821 165.594 102.183L165.435 102.341L162.671 100.796ZM222.932 130.846C222.687 129.413 221.598 128.122 219.661 127.04L219.351 126.866C217.411 125.861 216.467 126.085 216.058 126.326L216.022 126.306L220.19 122.146L217.08 120.408L202.221 135.238L205.339 136.981L213.425 128.911C213.784 128.553 214.737 127.601 217.545 129.171C218.901 129.929 219.985 131.069 219.016 132.036L210.93 140.106L214.048 141.849L221.728 134.185C222.203 133.701 222.553 133.157 222.758 132.583C222.964 132.01 223.02 131.418 222.924 130.842L222.932 130.846ZM186.545 108.53C188.482 109.613 189.586 110.888 189.812 112.335C189.91 112.911 189.855 113.504 189.651 114.078C189.447 114.653 189.098 115.198 188.623 115.682L180.941 123.349L177.823 121.606L185.909 113.537C186.862 112.585 185.773 111.418 184.413 110.658C181.629 109.102 180.676 110.053 180.317 110.411L172.231 118.481L169.085 116.723L180.453 105.378L183.571 107.12L182.869 107.821L182.905 107.841C183.314 107.6 184.254 107.374 186.191 108.382L186.489 108.549L186.545 108.53ZM162.078 94.8555L161.78 94.6888C159.843 93.6806 158.903 93.9069 158.49 94.1459L158.43 94.1126L159.101 93.4435L155.987 91.7031L144.619 103.048L147.733 104.789L155.819 96.719C156.178 96.3607 157.131 95.4094 159.938 96.9787L162.142 98.2102L164.258 96.0984L162.078 94.8555ZM191.398 126.226C194.181 127.782 195.249 126.716 195.649 126.317L200.199 121.776C200.602 121.373 201.667 120.311 198.883 118.755C197.523 117.995 195.691 117.57 194.607 118.651L190.058 123.191C188.958 124.264 190.021 125.457 191.398 126.226ZM202.95 119.03L203.446 118.535L207.138 114.851L210.256 116.594L195.393 131.427L192.275 129.684L193.123 128.838L193.088 128.818C192.659 129.072 191.497 129.501 189.481 128.454L189.278 128.341C187.342 127.258 186.237 125.983 186.011 124.536C185.911 123.961 185.965 123.369 186.169 122.795C186.374 122.221 186.724 121.677 187.201 121.194L191.252 117.151C193.098 115.309 196.937 114.363 201.005 116.637L201.319 116.813C203.158 117.919 203.132 118.657 202.938 119.018L202.95 119.03ZM228.566 144.957C228.207 145.315 227.254 146.266 224.47 144.711C223.11 143.95 222.006 142.799 222.975 141.832L231.124 133.698L228.006 131.956L220.333 139.613C219.857 140.097 219.506 140.641 219.302 141.216C219.097 141.79 219.042 142.382 219.141 142.958C219.382 144.389 220.471 145.68 222.411 146.765C222.924 147.054 223.468 147.31 224.039 147.531C224.375 147.635 224.746 147.672 225.116 147.637C225.487 147.602 225.847 147.498 226.161 147.332L226.197 147.353L225.352 148.196L228.45 149.928L239.834 138.566L236.716 136.824L228.566 144.957ZM238.986 152.824C240.343 153.582 242.178 154.004 243.258 152.926L247.808 148.385C248.891 147.304 247.828 146.111 246.472 145.353C243.664 143.784 242.596 144.849 242.196 145.249L237.646 149.79C237.247 150.194 236.183 151.257 238.99 152.826L238.986 152.824ZM248.594 143.235C250.535 144.32 251.635 145.593 251.865 147.042C251.964 147.618 251.909 148.211 251.705 148.785C251.5 149.359 251.149 149.904 250.672 150.387L246.625 154.427C244.779 156.269 240.94 157.215 236.871 154.941L236.644 154.814C234.731 153.665 234.964 152.702 235.157 152.336L235.125 152.318L234.28 153.161L231.162 151.419L246.025 136.586L249.143 138.328L244.955 142.507L244.987 142.525C245.396 142.284 246.341 142.06 248.281 143.065L248.591 143.238L248.594 143.235ZM138.056 96.422C139.416 97.1822 141.251 97.6045 142.334 96.5232L146.89 91.9762C147.977 90.8918 146.917 89.6959 145.557 88.9357C142.773 87.3797 141.702 88.4483 141.299 88.851L136.743 93.3979C136.319 93.7895 135.252 94.8549 138.056 96.422ZM147.67 86.8271C149.61 87.9118 150.711 89.1848 150.94 90.6338C151.039 91.2099 150.985 91.8024 150.78 92.3768C150.575 92.9511 150.224 93.4958 149.748 93.9789L145.7 98.0186C143.854 99.8608 140.011 100.805 135.943 98.5306L135.72 98.4061C133.806 97.2573 134.035 96.2921 134.233 95.9276L134.197 95.9076L133.352 96.7511L130.234 95.0084L145.097 80.1753L148.215 81.9179L144.027 86.0971L144.063 86.1171C144.476 85.8781 145.416 85.6518 147.356 86.6569L147.666 86.8302L147.67 86.8271ZM256.571 145.596C256.296 145.841 256.087 146.123 255.956 146.424C255.825 146.726 255.775 147.041 255.809 147.35C255.842 147.659 255.959 147.955 256.152 148.221C256.345 148.487 256.61 148.717 256.931 148.896C257.252 149.075 257.621 149.2 258.017 149.264C258.413 149.327 258.827 149.327 259.234 149.264C259.64 149.201 260.03 149.076 260.381 148.897C260.731 148.719 261.034 148.489 261.272 148.223C261.546 147.979 261.755 147.697 261.886 147.395C262.017 147.094 262.067 146.779 262.034 146.47C262 146.161 261.883 145.864 261.69 145.598C261.497 145.332 261.232 145.103 260.911 144.924C260.591 144.744 260.221 144.619 259.825 144.556C259.429 144.493 259.015 144.492 258.609 144.555C258.202 144.618 257.812 144.743 257.461 144.922C257.111 145.101 256.808 145.33 256.571 145.596ZM256.173 145.374C256.448 145.061 256.8 144.791 257.209 144.58C257.618 144.368 258.075 144.22 258.551 144.145C259.026 144.07 259.511 144.069 259.975 144.143C260.439 144.216 260.872 144.362 261.248 144.572C261.624 144.782 261.934 145.051 262.159 145.363C262.384 145.675 262.52 146.022 262.557 146.385C262.595 146.747 262.534 147.115 262.378 147.468C262.221 147.821 261.974 148.15 261.649 148.435C261.375 148.747 261.022 149.018 260.613 149.229C260.204 149.44 259.748 149.588 259.272 149.663C258.796 149.738 258.311 149.739 257.847 149.666C257.383 149.592 256.95 149.446 256.575 149.236C256.199 149.026 255.889 148.757 255.664 148.445C255.439 148.134 255.303 147.786 255.265 147.424C255.228 147.062 255.289 146.693 255.445 146.34C255.601 145.988 255.849 145.659 256.173 145.374Z" fill="white"/>
<defs>
<filter id="filter0_d_963_1115" x="267.051" y="243.866" width="68.265" height="56.0916" filterUnits="userSpaceOnUse" color-interpolation-filters="sRGB">
<feFlood flood-opacity="0" result="BackgroundImageFix"/>
<feColorMatrix in="SourceAlpha" type="matrix" values="0 0 0 0 0 0 0 0 0 0 0 0 0 0 0 0 0 0 127 0" result="hardAlpha"/>
<feOffset dx="-21.675" dy="-12.0417"/>
<feGaussianBlur stdDeviation="1.20417"/>
<feColorMatrix type="matrix" values="0 0 0 0 0 0 0 0 0 0 0 0 0 0 0 0 0 0 0.25 0"/>
<feBlend mode="normal" in2="BackgroundImageFix" result="effect1_dropShadow_963_1115"/>
<feBlend mode="normal" in="SourceGraphic" in2="effect1_dropShadow_963_1115" result="shape"/>
</filter>
<filter id="filter1_d_963_1115" x="0.119477" y="264.624" width="63.5915" height="83.6045" filterUnits="userSpaceOnUse" color-interpolation-filters="sRGB">
<feFlood flood-opacity="0" result="BackgroundImageFix"/>
<feColorMatrix in="SourceAlpha" type="matrix" values="0 0 0 0 0 0 0 0 0 0 0 0 0 0 0 0 0 0 127 0" result="hardAlpha"/>
<feOffset dx="-26.7202" dy="-14.8446"/>
<feGaussianBlur stdDeviation="1.48446"/>
<feColorMatrix type="matrix" values="0 0 0 0 0 0 0 0 0 0 0 0 0 0 0 0 0 0 0.25 0"/>
<feBlend mode="normal" in2="BackgroundImageFix" result="effect1_dropShadow_963_1115"/>
<feBlend mode="normal" in="SourceGraphic" in2="effect1_dropShadow_963_1115" result="shape"/>
</filter>
<filter id="filter2_d_963_1115" x="367.76" y="34.0955" width="53.2399" height="42.7512" filterUnits="userSpaceOnUse" color-interpolation-filters="sRGB">
<feFlood flood-opacity="0" result="BackgroundImageFix"/>
<feColorMatrix in="SourceAlpha" type="matrix" values="0 0 0 0 0 0 0 0 0 0 0 0 0 0 0 0 0 0 127 0" result="hardAlpha"/>
<feOffset dx="-23.7073" dy="-13.1707"/>
<feGaussianBlur stdDeviation="1.31707"/>
<feColorMatrix type="matrix" values="0 0 0 0 0 0 0 0 0 0 0 0 0 0 0 0 0 0 0.25 0"/>
<feBlend mode="normal" in2="BackgroundImageFix" result="effect1_dropShadow_963_1115"/>
<feBlend mode="normal" in="SourceGraphic" in2="effect1_dropShadow_963_1115" result="shape"/>
</filter>
<filter id="filter3_d_963_1115" x="16.4753" y="87.7557" width="61.0598" height="48.8078" filterUnits="userSpaceOnUse" color-interpolation-filters="sRGB">
<feFlood flood-opacity="0" result="BackgroundImageFix"/>
<feColorMatrix in="SourceAlpha" type="matrix" values="0 0 0 0 0 0 0 0 0 0 0 0 0 0 0 0 0 0 127 0" result="hardAlpha"/>
<feOffset dx="-19.2878" dy="-10.7155"/>
<feGaussianBlur stdDeviation="1.07155"/>
<feColorMatrix type="matrix" values="0 0 0 0 0 0 0 0 0 0 0 0 0 0 0 0 0 0 0.25 0"/>
<feBlend mode="normal" in2="BackgroundImageFix" result="effect1_dropShadow_963_1115"/>
<feBlend mode="normal" in="SourceGraphic" in2="effect1_dropShadow_963_1115" result="shape"/>
</filter>
<clipPath id="clip0_963_1115">
<rect width="41.8577" height="41.9335" fill="white" transform="translate(164.648 277.448)"/>
</clipPath>
</defs>
</svg>
